<svg xmlns="http://www.w3.org/2000/svg" xmlns:xlink="http://www.w3.org/1999/xlink" width="950" height="500" viewBox="0 0 950 500">
  <defs>
    <clipPath id="clip-Investment_Solutions_-_top_wheel_shape">
      <rect width="950" height="500"/>
    </clipPath>
  </defs>
  <g id="Investment_Solutions_-_top_wheel_shape" data-name="Investment Solutions - top wheel shape" clip-path="url(#clip-Investment_Solutions_-_top_wheel_shape)">
    <path id="Path_12081" data-name="Path 12081" d="M930.813,470.242h-288.9A176.336,176.336,0,0,0,479.888,289.82c-4.8-.395-9.672-.595-14.483-.595A176.5,176.5,0,0,0,323.712,360.5l-.147-.123-.005.009v.008L104.116,171.944c6.191-7.629,12.912-15.364,19.974-22.99L342.121,336.189,160.2,113.966c8.128-7.065,16.638-13.952,25.286-20.473l174.56,213.232-134.5-240.2c9.784-5.878,19.979-11.492,30.3-16.687L384.6,279.781,298.161,31.159c11.229-4.31,22.905-8.272,34.7-11.77L415.412,256.8l-39.686-248c12.7-2.5,25.561-4.473,38.225-5.868l37.8,236.215L455.856.1c3.256-.069,6.537-.1,9.754-.1,10.315,0,20.722.353,30.931,1.047l-3.889,227L536.1,5.372c14.077,2.172,28.158,5.021,41.854,8.466l-41.121,210.7L613.99,24.39c14.077,4.758,28.068,10.243,41.586,16.3L582.832,229.41,687.211,56.349c13.611,7.377,27.016,15.536,39.844,24.251L629,243.187,753.724,100.115a469.059,469.059,0,0,1,36.572,32L673.549,266.027l138.13-111.683A466.192,466.192,0,0,1,843.453,193.7L714.694,297.809,859.456,217.5a465.76,465.76,0,0,1,25.453,45.969l-134.289,74.5,145.087-50.225a469.346,469.346,0,0,1,17.818,51.547L779.6,385.645,919.56,363.058a470.436,470.436,0,0,1,9.142,55.817l-128.58,20.753,130.327,1.719c.282,5.241.476,10.583.579,15.879l-.227,13.008Zm-641.889,0H55.235L0,469.514l.388-22.225,288.881,3.793v.01h.194a176.88,176.88,0,0,0-.539,19.143ZM290.29,443.3h0l-.189-.036a.027.027,0,0,1,0,.016L5.944,389.613c1.337-8,2.89-16.021,4.612-23.834l284.3,53.693v.013l.19.034A176.679,176.679,0,0,0,290.3,443.3Zm6.362-29.362h0l-.178-.07a.053.053,0,0,0,0,.016L25.9,311.891c3.092-8.8,6.166-16.848,9.4-24.595l270.778,102.07v.01l.181.07a179.038,179.038,0,0,0-9.594,24.491Zm11.256-27.87h0l-.162-.1-.006.01v.006L58.945,238.609c4.606-8.229,9.519-16.418,14.6-24.342l249.008,147.5s-.006.007-.006.01l.164.1a178.477,178.477,0,0,0-14.8,24.2Z" transform="translate(9.001 15)" fill="#fff"/>
  </g>
</svg>
