<svg xmlns="http://www.w3.org/2000/svg" xmlns:xlink="http://www.w3.org/1999/xlink" width="72.859" height="72.859" viewBox="0 0 72.859 72.859">
  <defs>
    <clipPath id="clip-path">
      <rect id="Rectangle_269" data-name="Rectangle 269" width="41.324" height="41.346" fill="#1b7175"/>
    </clipPath>
    <clipPath id="clip-path-2">
      <rect id="Rectangle_280" data-name="Rectangle 280" width="51.716" height="51.716" fill="#b29668"/>
    </clipPath>
  </defs>
  <g id="Group_15831" data-name="Group 15831" transform="translate(0 0)">
    <g id="Group_15828" data-name="Group 15828" transform="matrix(0.809, 0.588, -0.588, 0.809, 31.865, 7.56)">
      <g id="Group_15825" data-name="Group 15825" transform="translate(0 0)" clip-path="url(#clip-path)">
        <path id="Path_8294" data-name="Path 8294" d="M11.734,5.873,0,.656C.093.436.191.218.293,0L12.025,5.216q-.161.324-.291.656" transform="translate(1.599 11.952)" fill="#1b7175"/>
        <path id="Path_8295" data-name="Path 8295" d="M12.458,3.724,0,.611Q.071.3.151,0L12.606,3.113q-.087.3-.149.611" transform="translate(0.499 15.386)" fill="#1b7175"/>
        <path id="Path_8296" data-name="Path 8296" d="M12.805,1.45,0,.538Q.015.269.036,0l12.8.911q-.026.269-.034.539" transform="translate(0 18.991)" fill="#1b7175"/>
        <path id="Path_8297" data-name="Path 8297" d="M11.661.242.119,5.864C.079,5.783.039,5.7,0,5.62L11.539,0q.059.122.122.242" transform="translate(2.045 24.085)" fill="#1b7175"/>
        <path id="Path_8298" data-name="Path 8298" d="M12.816.447.048,1.77Q.022,1.547,0,1.323L12.764,0c.013.15.03.3.051.447" transform="translate(0.066 21.333)" fill="#1b7175"/>
        <path id="Path_8299" data-name="Path 8299" d="M12.445.346.1,3.869C.067,3.753.033,3.638,0,3.522L12.341,0q.047.174.1.346" transform="translate(0.74 22.743)" fill="#1b7175"/>
        <path id="Path_8300" data-name="Path 8300" d="M5.694,11.986,0,.474Q.479.224.969,0l5.7,11.518a7.807,7.807,0,0,0-.971.468" transform="translate(11.065 1.864)" fill="#1b7175"/>
        <path id="Path_8301" data-name="Path 8301" d="M3.616,12.647,0,.324C.372.206.746.1,1.123,0L4.742,12.332a7.911,7.911,0,0,0-1.126.315" transform="translate(14.355 0.643)" fill="#1b7175"/>
        <path id="Path_8302" data-name="Path 8302" d="M1.425,12.9,0,.133Q.625.048,1.254,0L2.68,12.774a7.926,7.926,0,0,0-1.255.122" transform="translate(17.838 0.047)" fill="#1b7175"/>
        <path id="Path_8303" data-name="Path 8303" d="M32.8,34.029a20.834,20.834,0,0,1-1.735,1.816L26.895,31.84l3.423,4.668a20.523,20.523,0,0,1-2.094,1.547L25.1,33.79l2.346,4.743a20.594,20.594,0,0,1-2.412,1.2l-2.127-4.3,1.351,4.6a20.722,20.722,0,0,1-2.672.8L20.37,36.7l.479,4.288a20.777,20.777,0,0,1-2.863.334l-.339-3.037-.194,3.055a20.728,20.728,0,0,1-3.241-.184l.1-1.551-.368,1.512A20.718,20.718,0,0,1,0,32.419l10.388-7.555A7.848,7.848,0,1,0,16.965,12.82L17.781,0c.45.016.9.048,1.349.094l-.811,12.738L21.337.439q.7.15,1.4.349l-2.9,11.891L24.766,1.488q.709.286,1.4.629L21.455,12.83l6.506-9.712q.685.428,1.345.916l-6.213,9.275,7.734-8.037q.645.578,1.23,1.2l-7.367,7.656L33.279,7.88q.562.714,1.054,1.468l-8.154,5.931,9.059-4.412q.451.839.819,1.71l-8.572,4.175,9.161-2.614q.313.943.534,1.911l-8.637,2.465,8.928-.925q.154,1.025.205,2.061l-8.387.869,8.408.6a20.752,20.752,0,0,1-.157,2.153l-7.87-.56,7.654,1.913a20.6,20.6,0,0,1-.546,2.179l-7.134-1.783,6.718,2.987a20.581,20.581,0,0,1-.95,2.132l-6.232-2.771,5.66,3.8a20.752,20.752,0,0,1-1.352,2.01l-5.224-3.51Z" transform="translate(3.628 0)" fill="#1b7175"/>
        <path id="Path_8304" data-name="Path 8304" d="M7.595,10.938,0,.582Q.393.281.8,0l7.6,10.359a7.779,7.779,0,0,0-.8.579" transform="translate(8.065 3.67)" fill="#1b7175"/>
        <path id="Path_8305" data-name="Path 8305" d="M9.264,9.537,0,.647Q.305.316.621,0L9.887,8.892a7.835,7.835,0,0,0-.623.645" transform="translate(5.442 6.006)" fill="#1b7175"/>
        <path id="Path_8306" data-name="Path 8306" d="M10.657,7.83,0,.669C.145.444.3.221.452,0L11.109,7.16a7.785,7.785,0,0,0-.451.669" transform="translate(3.266 8.795)" fill="#1b7175"/>
      </g>
    </g>
    <g id="Group_15830" data-name="Group 15830" transform="translate(72.859 39.617) rotate(140)">
      <g id="Group_15829" data-name="Group 15829" clip-path="url(#clip-path-2)">
        <path id="Path_8309" data-name="Path 8309" d="M5.962,10.9,1.994,0Q.978.323,0,.727l3.967,10.9A14.168,14.168,0,0,1,5.962,10.9" transform="translate(16.022 1.212)" fill="#b29668"/>
        <path id="Path_8310" data-name="Path 8310" d="M5.957,10.03.166,0,0,.1l5.791,10.03.167-.1" transform="translate(12.844 3.413)" fill="#b29668"/>
        <path id="Path_8311" data-name="Path 8311" d="M4.05,11.421,2.036,0Q1,.138,0,.357L2.014,11.778a14.225,14.225,0,0,1,2.036-.357" transform="translate(20.353 0.232)" fill="#b29668"/>
        <path id="Path_8312" data-name="Path 8312" d="M11.58.262c0-.088,0-.175,0-.262H0C0,.087,0,.174,0,.262S0,.436,0,.524h11.58c0-.087,0-.174,0-.262" transform="translate(0 25.596)" fill="#b29668"/>
        <path id="Path_8313" data-name="Path 8313" d="M10.21,5.791.18,0C.12.1.059.206,0,.31L10.03,6.1q.088-.156.179-.31" transform="translate(3.372 12.773)" fill="#b29668"/>
        <path id="Path_8314" data-name="Path 8314" d="M9.066,7.443.2,0C.13.077.065.154,0,.232L8.871,7.675q.1-.117.2-.232" transform="translate(5.952 9.122)" fill="#b29668"/>
        <path id="Path_8315" data-name="Path 8315" d="M11.486,2.011.08,0C.052.153.026.307,0,.462L11.405,2.473q.037-.232.081-.462" transform="translate(0.351 21.137)" fill="#b29668"/>
        <path id="Path_8316" data-name="Path 8316" d="M11.026,3.962.141,0Q.069.194,0,.389L10.884,4.35q.068-.2.142-.388" transform="translate(1.485 16.818)" fill="#b29668"/>
        <path id="Path_8317" data-name="Path 8317" d="M1.006,11.58c.338,0,.674.013,1.006.036V.021C1.678.009,1.343,0,1.006,0S.334.009,0,.021V11.615c.332-.023.668-.036,1.006-.036" transform="translate(24.852 0)" fill="#b29668"/>
        <path id="Path_8318" data-name="Path 8318" d="M7.632,8.87.189,0,0,.16,7.443,9.03c.063-.054.125-.108.189-.16" transform="translate(9.143 5.97)" fill="#b29668"/>
        <path id="Path_8319" data-name="Path 8319" d="M.842,7.251l10.039-5.8Q10.483.713,10.039,0L0,5.8A14.269,14.269,0,0,1,.842,7.251" transform="translate(37.782 12.207)" fill="#b29668"/>
        <path id="Path_8320" data-name="Path 8320" d="M.556,5.493,11.449,1.529Q11.195.753,10.894,0L0,3.965A14.158,14.158,0,0,1,.556,5.493" transform="translate(38.978 16.252)" fill="#b29668"/>
        <path id="Path_8321" data-name="Path 8321" d="M1.117,8.78,10,1.329Q9.46.645,8.879,0L0,7.45A14.368,14.368,0,0,1,1.117,8.78" transform="translate(36.217 8.582)" fill="#b29668"/>
        <path id="Path_8322" data-name="Path 8322" d="M11.588,0H0Q.02.377.02.758T0,1.516H11.588c.007-.252.012-.5.012-.758s0-.506-.012-.758" transform="translate(40.116 25.1)" fill="#b29668"/>
        <path id="Path_8323" data-name="Path 8323" d="M1.372,10.032,8.823,1.153Q8.158.554,7.452,0L0,8.881a14.35,14.35,0,0,1,1.372,1.152" transform="translate(34.332 5.485)" fill="#b29668"/>
        <path id="Path_8324" data-name="Path 8324" d="M1.787,11.547,5.753.651Q4.875.294,3.966,0L0,10.9a14.186,14.186,0,0,1,1.787.651" transform="translate(29.838 1.246)" fill="#b29668"/>
        <path id="Path_8325" data-name="Path 8325" d="M1.6,10.966,7.4.925Q6.615.435,5.8,0L0,10.041a14.273,14.273,0,0,1,1.6.925" transform="translate(32.184 3.014)" fill="#b29668"/>
        <path id="Path_8326" data-name="Path 8326" d="M1.928,11.757,3.941.338Q2.99.134,2.014,0L0,11.419a14.229,14.229,0,0,1,1.928.338" transform="translate(27.368 0.24)" fill="#b29668"/>
        <path id="Path_8327" data-name="Path 8327" d="M.27,3.561,11.685,1.548Q11.572.766,11.415,0L0,2.013A14.245,14.245,0,0,1,.27,3.561" transform="translate(39.765 20.595)" fill="#b29668"/>
        <path id="Path_8328" data-name="Path 8328" d="M11.405,0,0,2.011q.047.286.1.57L11.506.57c-.037-.189-.071-.379-.1-.57" transform="translate(0.342 28.052)" fill="#b29668"/>
        <path id="Path_8329" data-name="Path 8329" d="M0,.593,5.793,10.628q.52-.285,1.026-.593L1.026,0Q.527.317,0,.593" transform="translate(32.479 37.918)" fill="#b29668"/>
        <path id="Path_8330" data-name="Path 8330" d="M0,.8,7.447,9.672q.485-.388.95-.8L.95,0Q.493.419,0,.8" transform="translate(34.552 36.387)" fill="#b29668"/>
        <path id="Path_8331" data-name="Path 8331" d="M0,.387l3.963,10.89q.536-.182,1.062-.388L1.062,0Q.541.214,0,.387" transform="translate(30.208 39.074)" fill="#b29668"/>
        <path id="Path_8332" data-name="Path 8332" d="M0,1.169,10.035,6.963q.353-.575.677-1.169L.676,0Q.365.6,0,1.169" transform="translate(37.873 32.406)" fill="#b29668"/>
        <path id="Path_8333" data-name="Path 8333" d="M0,1.439,11.414,3.452q.146-.713.251-1.439L.252,0A14.219,14.219,0,0,1,0,1.439" transform="translate(39.777 27.615)" fill="#b29668"/>
        <path id="Path_8334" data-name="Path 8334" d="M0,1.321,10.892,5.285q.258-.652.48-1.321L.481,0Q.272.675,0,1.321" transform="translate(39.022 30.076)" fill="#b29668"/>
        <path id="Path_8335" data-name="Path 8335" d="M0,.185,2.012,11.6c.355-.055.708-.118,1.059-.187L1.059,0Q.536.112,0,.185" transform="translate(27.806 39.818)" fill="#b29668"/>
        <path id="Path_8336" data-name="Path 8336" d="M0,.992,8.875,8.439q.429-.485.833-.992L.833,0Q.439.515,0,.992" transform="translate(36.368 34.53)" fill="#b29668"/>
        <path id="Path_8337" data-name="Path 8337" d="M10.03,0,0,5.791q.169.3.345.6L10.375.6Q10.2.3,10.03,0" transform="translate(3.292 32.698)" fill="#b29668"/>
        <path id="Path_8338" data-name="Path 8338" d="M7.446,0,0,8.873c.2.174.406.345.613.513L8.058.514Q7.744.266,7.446,0" transform="translate(8.932 36.534)" fill="#b29668"/>
        <path id="Path_8339" data-name="Path 8339" d="M8.872,0,0,7.444c.157.192.316.383.478.571L9.351.57Q9.1.291,8.872,0" transform="translate(5.813 34.748)" fill="#b29668"/>
        <path id="Path_8340" data-name="Path 8340" d="M10.884,0,0,3.961q.1.3.217.6L11.1.6Q10.987.3,10.884,0" transform="translate(1.448 30.444)" fill="#b29668"/>
        <path id="Path_8341" data-name="Path 8341" d="M.51.01C.339.01.169.006,0,0V11.583c.17,0,.339.006.51.006s.34,0,.51-.006V0C.851.006.681.01.51.01" transform="translate(25.348 40.127)" fill="#b29668"/>
        <path id="Path_8342" data-name="Path 8342" d="M5.792,0,0,10.032q.366.22.74.427L6.532.428Q6.155.225,5.792,0" transform="translate(12.559 38.005)" fill="#b29668"/>
        <path id="Path_8343" data-name="Path 8343" d="M2.012,0,0,11.408c.315.061.631.118.95.167L2.962.166Q2.482.1,2.012,0" transform="translate(20.893 39.83)" fill="#b29668"/>
        <path id="Path_8344" data-name="Path 8344" d="M3.962,0,0,10.886q.424.163.855.312L4.817.311Q4.384.169,3.962,0" transform="translate(16.586 39.116)" fill="#b29668"/>
      </g>
    </g>
  </g>
</svg>
