<svg xmlns="http://www.w3.org/2000/svg" xmlns:xlink="http://www.w3.org/1999/xlink" width="343" height="343" viewBox="0 0 343 343">
  <defs>
    <clipPath id="clip-Loading_Circle">
      <rect width="343" height="343"/>
    </clipPath>
  </defs>
  <g id="Loading_Circle" data-name="Loading Circle" clip-path="url(#clip-Loading_Circle)">
    <rect width="343" height="343" fill="transparent"/>
    <g id="Loading_Circle-2" data-name="Loading Circle" transform="translate(0 0)">
      <path id="Loading_36" data-name="Loading 36" d="M12.484,229.971h0c-1.74-4.228-3.315-8.55-4.681-12.848l23.19-8.441c1.357,4.325,2.945,8.642,4.723,12.834l-23.232,8.456Z" transform="translate(5 5)" fill="#b29668"/>
      <path id="Loading_35" data-name="Loading 35" d="M3.8,202.068h0c-.94-4.337-1.714-8.751-2.3-13.119l24.231-4.272c.566,4.388,1.349,8.8,2.33,13.115L3.8,202.07Z" transform="translate(5 5)" fill="#b29668"/>
      <path id="Loading_34" data-name="Loading 34" d="M24.719,173.081H.138C.044,170.6,0,168.545,0,166.6s.044-4.013.138-6.483H24.715c-.1,2.126-.145,4.292-.145,6.44,0,2.167.05,4.362.149,6.523Z" transform="translate(5 5)" fill="#b29668"/>
      <path id="Loading_33" data-name="Loading 33" d="M25.764,148.164h0l-24.216-4.27c.564-4.148,1.3-8.327,2.174-12.42l24.241,4.274c-.913,4.08-1.653,8.256-2.2,12.415Z" transform="translate(5 5)" fill="#b29668"/>
      <path id="Loading_32" data-name="Loading 32" d="M31.188,123.83h0L8.028,115.4c1.251-3.881,2.662-7.755,4.192-11.516l23.2,8.442c-1.569,3.756-2.991,7.626-4.226,11.5Z" transform="translate(5 5)" fill="#b29668"/>
      <path id="Loading_31" data-name="Loading 31" d="M40.76,100.809h0L19.423,88.49c1.856-3.489,3.861-6.954,5.959-10.3L46.721,90.51c-2.244,3.565-4.194,6.933-5.959,10.3Z" transform="translate(5 5)" fill="#b29668"/>
      <path id="Loading_30" data-name="Loading 30" d="M54.243,79.849h0L35.336,64c2.345-3,4.844-5.969,7.429-8.837L61.679,71.033c-.76.845-1.527,1.721-2.28,2.6-1.736,1.952-3.473,4.045-5.162,6.22Z" transform="translate(5 5)" fill="#b29668"/>
      <path id="Loading_29" data-name="Loading 29" d="M71.137,61.525h0L55.3,42.646c2.814-2.529,5.694-4.951,8.562-7.2l15.856,18.9c-2.95,2.275-5.835,4.691-8.575,7.184Z" transform="translate(5 5)" fill="#b29668"/>
      <path id="Loading_28" data-name="Loading 28" d="M90.979,46.46h0L78.644,25.1c3.094-1.927,6.249-3.753,9.376-5.429l12.331,21.359c-3.161,1.663-6.314,3.491-9.371,5.435Z" transform="translate(5 5)" fill="#b29668"/>
      <path id="Loading_27" data-name="Loading 27" d="M113.144,35.06h0l-8.436-23.177c3.214-1.286,6.527-2.491,9.849-3.581l8.424,23.144c-3.345,1.1-6.654,2.315-9.835,3.615Z" transform="translate(5 5)" fill="#b29668"/>
      <path id="Loading_26" data-name="Loading 26" d="M136.967,27.714h0L132.69,3.458c3.2-.662,6.556-1.247,9.973-1.739l4.276,24.25c-3.326.461-6.68,1.048-9.97,1.746Z" transform="translate(5 5)" fill="#b29668"/>
      <path id="Loading_25" data-name="Loading 25" d="M171.482,24.7h0c-1.623-.055-3.268-.083-4.889-.083s-3.261.028-4.879.083V.077C163.341.03,164.786,0,166.133,0h.931c1.359,0,2.8.03,4.419.077V24.7Z" transform="translate(5 5)" fill="#b29668"/>
      <path id="Loading_24" data-name="Loading 24" d="M195.877,27.649h0c-3.055-.643-6.174-1.191-9.27-1.629l4.276-24.252c3.224.472,6.344,1.015,9.274,1.615l-4.279,24.266Z" transform="translate(5 5)" fill="#b29668"/>
      <path id="Loading_23" data-name="Loading 23" d="M219.393,34.784h0c-2.788-1.12-5.65-2.164-8.507-3.1l8.43-23.16c2.913.971,5.776,2.012,8.512,3.092L219.4,34.786Z" transform="translate(5 5)" fill="#b29668"/>
      <path id="Loading_22" data-name="Loading 22" d="M241.314,45.887h0c-2.454-1.523-4.987-2.99-7.53-4.36l12.332-21.359c2.474,1.346,5.007,2.815,7.529,4.364L241.316,45.887Z" transform="translate(5 5)" fill="#b29668"/>
      <path id="Loading_21" data-name="Loading 21" d="M261,60.591h0c-2.068-1.842-4.219-3.648-6.392-5.367l15.848-18.886c2.171,1.733,4.32,3.54,6.391,5.37L261,60.59Z" transform="translate(5 5)" fill="#b29668"/>
      <path id="Loading_20" data-name="Loading 20" d="M277.88,78.438h0c-1.648-2.074-3.379-4.131-5.143-6.114l18.878-15.84c1.762,2,3.491,4.057,5.14,6.118L277.882,78.438Z" transform="translate(5 5)" fill="#b29668"/>
      <path id="Loading_19" data-name="Loading 19" d="M291.453,98.922h0c-1.213-2.226-2.5-4.449-3.832-6.606L308.947,80c1.293,2.121,2.578,4.346,3.821,6.613l-21.321,12.31Z" transform="translate(5 5)" fill="#b29668"/>
      <path id="Loading_18" data-name="Loading 18" d="M301.288,121.449h0c-.769-2.287-1.609-4.588-2.5-6.839l23.119-8.415c.912,2.345,1.752,4.646,2.5,6.841l-23.116,8.414Z" transform="translate(5 5)" fill="#b29668"/>
      <path id="Loading_17" data-name="Loading 17" d="M307.053,145.346h0c-.343-2.276-.746-4.571-1.2-6.821l24.2-4.267c.481,2.447.874,4.678,1.2,6.821l-24.2,4.268Z" transform="translate(5 5)" fill="#b29668"/>
      <path id="Loading_16" data-name="Loading 16" d="M333.159,169.881H308.6c.025-1.086.038-2.205.038-3.328,0-1.077-.012-2.168-.036-3.244H333.16v.183c.016.885.032,1.8.036,2.7v.8c0,.961-.023,1.935-.04,2.878Z" transform="translate(5 5)" fill="#b29668"/>
      <path id="Loading_15" data-name="Loading 15" d="M330.119,198.589h0l-24.206-4.268c.4-2.014.763-4.074,1.078-6.123l24.208,4.268c-.3,1.935-.654,3.937-1.078,6.122Z" transform="translate(5 5)" fill="#b29668"/>
      <path id="Loading_14" data-name="Loading 14" d="M322.154,226.34h0l-23.124-8.416c.7-1.806,1.379-3.658,2.011-5.5l23.122,8.415c-.618,1.8-1.294,3.647-2.008,5.5Z" transform="translate(5 5)" fill="#b29668"/>
      <path id="Loading_13" data-name="Loading 13" d="M309.495,252.283h0l-21.332-12.316c.943-1.555,1.872-3.157,2.762-4.762l21.324,12.312c-.946,1.7-1.847,3.259-2.753,4.766Z" transform="translate(5 5)" fill="#b29668"/>
      <path id="Loading_12" data-name="Loading 12" d="M292.552,275.652h0L273.663,259.8c1.117-1.28,2.232-2.606,3.315-3.942l18.877,15.84c-1.207,1.484-2.288,2.775-3.3,3.949Z" transform="translate(5 5)" fill="#b29668"/>
      <path id="Loading_11" data-name="Loading 11" d="M271.836,295.752h0L255.99,276.868c1.226-1,2.461-2.032,3.672-3.084l15.851,18.89c-1.093.947-2.3,1.953-3.675,3.078Z" transform="translate(5 5)" fill="#b29668"/>
      <path id="Loading_10" data-name="Loading 10" d="M247.976,312h0l-12.323-21.344c1.274-.712,2.567-1.46,3.842-2.225l12.325,21.347c-1.257.75-2.55,1.5-3.842,2.223Z" transform="translate(5 5)" fill="#b29668"/>
      <path id="Loading_9" data-name="Loading 9" d="M221.665,323.874h0l-8.425-23.148c1.265-.441,2.556-.911,3.837-1.4l8.427,23.152c-1.3.493-2.6.962-3.837,1.4Z" transform="translate(5 5)" fill="#b29668"/>
      <path id="Loading_8" data-name="Loading 8" d="M193.69,331h0l-4.274-24.24c1.207-.2,2.443-.412,3.673-.645l4.275,24.245c-1.186.222-2.387.432-3.673.642Z" transform="translate(5 5)" fill="#b29668"/>
      <path id="Loading_7" data-name="Loading 7" d="M166.6,333.2c-.354,0-.713-.006-1.061-.012h-.021l-.605-.009v-24.6c.537.006,1.1.01,1.682.01.556,0,1.125,0,1.692-.01v24.6l-.625.009c-.348.006-.707.012-1.062.012" transform="translate(5 5)" fill="#b29668"/>
      <path id="Loading_6" data-name="Loading 6" d="M139.152,330.941h0c-1.15-.19-2.094-.355-2.974-.517l4.274-24.241c.972.181,1.973.357,2.974.521l-4.273,24.236Z" transform="translate(5 5)" fill="#b29668"/>
      <path id="Loading_5" data-name="Loading 5" d="M110.858,323.638h0c-.937-.333-1.756-.63-2.5-.909l8.422-23.141c.81.3,1.651.61,2.5.912l-8.421,23.136Z" transform="translate(5 5)" fill="#b29668"/>
      <path id="Loading_4" data-name="Loading 4" d="M84.288,311.476h0c-.672-.383-1.327-.767-1.994-1.16l12.317-21.334c.64.38,1.311.77,2,1.161L84.295,311.475Z" transform="translate(5 5)" fill="#b29668"/>
      <path id="Loading_3" data-name="Loading 3" d="M60.26,294.852h0c-.415-.344-.832-.7-1.236-1.043L59,293.786l-.229-.2L74.614,274.7c.468.4.971.822,1.5,1.257L60.265,294.847Z" transform="translate(5 5)" fill="#b29668"/>
      <path id="Loading_2" data-name="Loading 2" d="M39.495,274.3h0l-.25-.294-.008-.01c-.254-.3-.517-.608-.772-.915l18.907-15.865c.324.387.671.8,1.032,1.22L39.5,274.3Z" transform="translate(5 5)" fill="#b29668"/>
      <path id="Loading_1" data-name="Loading 1" d="M22.612,250.448h0l-.216-.367-.02-.033v-.007c-.128-.217-.26-.441-.388-.663l21.347-12.324c.189.33.392.682.621,1.076L22.617,250.45Z" transform="translate(5 5)" fill="#b29668"/>
    </g>
  </g>
</svg>
