<svg xmlns="http://www.w3.org/2000/svg" xmlns:xlink="http://www.w3.org/1999/xlink" width="290.422" height="27.327" viewBox="0 0 290.422 27.327">
  <defs>
    <clipPath id="clip-path">
      <rect id="Rectangle_3" data-name="Rectangle 3" width="290.422" height="27.327" fill="#fff"/>
    </clipPath>
  </defs>
  <g id="Group_15836" data-name="Group 15836" transform="translate(0 0)">
    <g id="Group_2" data-name="Group 2" transform="translate(0 0)" clip-path="url(#clip-path)">
      <path id="Path_6" data-name="Path 6" d="M273.6,12.013h1.156l-1.728-2.424.1-.029a1.873,1.873,0,0,0,1.492-1.891V7.649a1.878,1.878,0,0,0-.517-1.345,2.531,2.531,0,0,0-1.816-.626h-2.815v6.335h.987V9.752h1.543Zm-3.137-5.45H272.2c.9,0,1.42.42,1.42,1.151s-.554,1.18-1.411,1.18h-1.744Z" transform="translate(-63.477 -1.337)" fill="#fff"/>
      <path id="Path_7" data-name="Path 7" d="M288.479,9.251V8.384h-3.253V6.545h3.67V5.677H284.24v6.335h4.7v-.866h-3.717v-1.9Z" transform="translate(-66.955 -1.337)" fill="#fff"/>
      <path id="Path_8" data-name="Path 8" d="M303.033,10.215c0-.976-.569-1.488-2.028-1.845-1.253-.3-1.6-.533-1.6-1.093,0-.516.467-.864,1.133-.864a2.956,2.956,0,0,1,1.743.635l.525-.738a3.5,3.5,0,0,0-2.25-.755,1.906,1.906,0,0,0-2.138,1.806c0,1.157.739,1.552,2.1,1.881,1.167.27,1.523.518,1.523,1.066s-.481.91-1.226.91a3.026,3.026,0,0,1-2.039-.811l-.588.7a3.931,3.931,0,0,0,2.6.97c1.361,0,2.241-.731,2.241-1.861" transform="translate(-70.242 -1.309)" fill="#fff"/>
      <path id="Path_9" data-name="Path 9" d="M315.61,5.533a3.23,3.23,0,0,0-3.325,3.279V8.83a3.316,3.316,0,0,0,6.632-.018,3.216,3.216,0,0,0-3.306-3.279m2.263,3.3A2.265,2.265,0,0,1,315.61,11.2a2.31,2.31,0,0,1-2.282-2.384,2.27,2.27,0,0,1,2.264-2.384,2.31,2.31,0,0,1,2.282,2.384Z" transform="translate(-73.561 -1.303)" fill="#fff"/>
      <path id="Path_10" data-name="Path 10" d="M331.407,12.115a2.527,2.527,0,0,0,2.714-2.835v-3.6h-.988V9.337c0,1.2-.622,1.884-1.708,1.884s-1.717-.7-1.717-1.93V5.678h-.987V9.337a2.488,2.488,0,0,0,2.685,2.779" transform="translate(-77.433 -1.337)" fill="#fff"/>
      <path id="Path_11" data-name="Path 11" d="M346.1,9.784l1.571,2.229h1.155L347.1,9.589l.1-.029a1.873,1.873,0,0,0,1.493-1.891V7.649a1.88,1.88,0,0,0-.516-1.345,2.536,2.536,0,0,0-1.818-.626h-2.815v6.335h.987V9.752h1.543Zm-1.566-3.221h1.736c.9,0,1.42.42,1.42,1.151s-.554,1.18-1.411,1.18h-1.744Z" transform="translate(-80.925 -1.337)" fill="#fff"/>
      <path id="Path_12" data-name="Path 12" d="M358.306,8.811v.018a3.171,3.171,0,0,0,3.224,3.26,3.24,3.24,0,0,0,2.525-1.072l-.628-.636a2.554,2.554,0,0,1-1.86.814,2.281,2.281,0,0,1-2.217-2.384,2.249,2.249,0,0,1,2.217-2.384,2.6,2.6,0,0,1,1.811.773l.632-.729a3.3,3.3,0,0,0-2.434-.939,3.2,3.2,0,0,0-3.27,3.279" transform="translate(-84.402 -1.303)" fill="#fff"/>
      <path id="Path_13" data-name="Path 13" d="M377.868,9.25V8.384h-3.254V6.544h3.67V5.677h-4.658v6.335h4.7v-.867h-3.717V9.25Z" transform="translate(-88.01 -1.337)" fill="#fff"/>
      <path id="Path_14" data-name="Path 14" d="M274.347,24.035a2.115,2.115,0,0,0-2.389-2.111h-2.481v6.335h.987V26.174h1.365c1.53,0,2.519-.839,2.519-2.139m-3.883-1.225h1.4c.923,0,1.475.462,1.475,1.234v.02c0,.738-.593,1.234-1.475,1.234h-1.4Z" transform="translate(-63.477 -5.164)" fill="#fff"/>
      <path id="Path_15" data-name="Path 15" d="M288.6,26.678l.02.046.638,1.52h1.037L287.5,21.863h-.957l-2.787,6.382h1l.667-1.566Zm-2.771-.964,1.182-2.758,1.239,2.864h-2.467Z" transform="translate(-66.842 -5.15)" fill="#fff"/>
      <path id="Path_16" data-name="Path 16" d="M304.339,28.259H305.5l-1.728-2.423.1-.029a1.873,1.873,0,0,0,1.492-1.892,1.9,1.9,0,0,0-.516-1.365,2.537,2.537,0,0,0-1.818-.626h-2.815v6.335h.987V26h1.543ZM301.2,22.81h1.735c.9,0,1.42.42,1.42,1.151s-.554,1.179-1.411,1.179H301.2Z" transform="translate(-70.718 -5.164)" fill="#fff"/>
      <path id="Path_17" data-name="Path 17" d="M320.185,21.924h-5.112v.905h2.058v5.43h1v-5.43h2.057Z" transform="translate(-74.218 -5.164)" fill="#fff"/>
      <path id="Path_18" data-name="Path 18" d="M335.119,28.259V21.924h-.969v4.633l-3.589-4.633h-.943v6.335h.969V23.5l3.691,4.762Z" transform="translate(-77.644 -5.164)" fill="#fff"/>
      <path id="Path_19" data-name="Path 19" d="M348.912,25.5V24.63h-3.253V22.79h3.67v-.867h-4.658v6.335h4.7v-.866h-3.716V25.5Z" transform="translate(-81.19 -5.164)" fill="#fff"/>
      <path id="Path_20" data-name="Path 20" d="M361.236,26.03l1.571,2.229h1.155l-1.728-2.423.1-.029a1.873,1.873,0,0,0,1.493-1.892,1.894,1.894,0,0,0-.516-1.364,2.535,2.535,0,0,0-1.818-.627h-2.815v6.335h.987V26h1.543Zm-1.566-3.22h1.735c.9,0,1.42.42,1.42,1.151s-.554,1.179-1.411,1.179H359.67Z" transform="translate(-84.49 -5.164)" fill="#fff"/>
      <path id="Path_21" data-name="Path 21" d="M378.422,26.462c0-.977-.569-1.489-2.027-1.845-1.254-.3-1.6-.534-1.6-1.093,0-.517.466-.864,1.133-.864a2.956,2.956,0,0,1,1.743.635l.524-.738a3.492,3.492,0,0,0-2.249-.755,1.906,1.906,0,0,0-2.138,1.806c0,1.157.738,1.552,2.1,1.881,1.167.269,1.523.518,1.523,1.066s-.481.91-1.226.91a3.026,3.026,0,0,1-2.038-.812l-.589.7a3.928,3.928,0,0,0,2.6.971c1.361,0,2.241-.731,2.241-1.861" transform="translate(-88 -5.135)" fill="#fff"/>
      <path id="Path_22" data-name="Path 22" d="M130.648,25.331a11.97,11.97,0,0,0,3.5-.533,12.971,12.971,0,0,0,3.222-1.5,6.2,6.2,0,0,0,1.529-1.232,17.567,17.567,0,0,0,1.232-1.533,8.648,8.648,0,0,0,1.14-2.119,14.841,14.841,0,0,0,.653-2.321,8.653,8.653,0,0,0,.329-2.377,9.086,9.086,0,0,0-.423-2.737,10.555,10.555,0,0,0-2.337-4.793,10.388,10.388,0,0,0-4.362-3.053,20.042,20.042,0,0,0-2.308-.657,11.523,11.523,0,0,0-2.386-.27,8.581,8.581,0,0,0-1.272.093l.008.05-.01-.05a19.546,19.546,0,0,0-3.534,1,8.694,8.694,0,0,0-3.059,2,10.728,10.728,0,0,0-1.747,2,9.7,9.7,0,0,0-1.177,2.388,12.249,12.249,0,0,0-.456,2.062c-.1.7-.162,1.4-.231,2.1a12.217,12.217,0,0,0,.513,3.448,11.019,11.019,0,0,0,9.085,7.831,11.077,11.077,0,0,0,2.092.2m-2.439,1.686a9.807,9.807,0,0,1-1.618-.3q-.485-.124-.962-.287c-.316-.109-.629-.23-.935-.362a12.867,12.867,0,0,1-4.107-2.831,12.576,12.576,0,0,1-.88-1.008q-.307-.4-.586-.816a11.608,11.608,0,0,1-.67-1.164,15.225,15.225,0,0,1-1.316-3.933,21.473,21.473,0,0,1,0-4.13c.037-.2.055-.408.085-.614s.065-.408.1-.61c.055-.305.118-.61.19-.911a11.553,11.553,0,0,1,.93-2.616l0,0a11.207,11.207,0,0,1,.629-1.183c.039-.063.079-.125.118-.188.057-.087.115-.174.174-.259s.1-.143.15-.214.122-.17.186-.253c.089-.119.181-.236.274-.349a13.012,13.012,0,0,1,7.5-4.422A12.647,12.647,0,0,1,129.9.329h.006c.128,0,.261,0,.391.005h0c.2-.01.4-.014.6-.014a13.6,13.6,0,0,1,3.571.489,16,16,0,0,1,3.359,1.337A11.824,11.824,0,0,1,141.941,6.1a13.469,13.469,0,0,1,2.026,5.369,17.952,17.952,0,0,1,.232,2.507c0,.79-.211,1.679-.26,2.465a17.339,17.339,0,0,1-1.326,3.88,13.576,13.576,0,0,1-2.027,2.937c-.118.121-.241.239-.366.359h0a8.043,8.043,0,0,1-.7.641q-.245.2-.5.38c-.256.183-.522.353-.794.513-.726.428-1.493.8-2.252,1.157a14.389,14.389,0,0,1-6.1.921" transform="translate(-27.566 -0.075)" fill="#fff"/>
      <path id="Path_23" data-name="Path 23" d="M196.475,27.115q-.009-6.336,0-12.675A13.217,13.217,0,0,0,194.781,7.6a10.664,10.664,0,0,0-5.407-4.436,19.2,19.2,0,0,0-3.463-.844,11.383,11.383,0,0,0-4.555.533,10.581,10.581,0,0,0-6.931,5.886,12.181,12.181,0,0,0-1.008,4.507q-.011,6.925,0,13.846-.991.028-1.976.028-.015-6.833,0-13.666a12.854,12.854,0,0,1,3.926-9.607,13.407,13.407,0,0,1,7.647-3.5,16.3,16.3,0,0,1,4.869.208,17.159,17.159,0,0,1,4.182,1.513,12.666,12.666,0,0,1,6.325,9.491c.467,6.664.188,10.507.162,15.533" transform="translate(-40.382 -0.062)" fill="#fff"/>
      <path id="Path_24" data-name="Path 24" d="M67.271.022c-.008.6,0,2,0,2a28.508,28.508,0,0,0-4.279.219,15.454,15.454,0,0,0-4.289,1.179,10.5,10.5,0,0,0-5.483,5.86,12.784,12.784,0,0,0-.8,4.7c.013,4.347-.016,8.692.015,13.039l-.037,0c-.672,0-1.294-.008-1.972,0l-.03,0c.031-4.61-.095-9.223.011-13.833a19.3,19.3,0,0,1,.42-3.347,11.625,11.625,0,0,1,4.859-7.124A15.016,15.016,0,0,1,62.186.266,25.762,25.762,0,0,1,67.271.022" transform="translate(-11.865 0)" fill="#fff"/>
      <path id="Path_25" data-name="Path 25" d="M13.622,25.072a11.97,11.97,0,0,0,3.5-.533,12.989,12.989,0,0,0,3.223-1.5,6.211,6.211,0,0,0,1.528-1.232A17.434,17.434,0,0,0,23.1,20.277a8.648,8.648,0,0,0,1.14-2.119,14.827,14.827,0,0,0,.653-2.322,8.644,8.644,0,0,0,.329-2.376,9.062,9.062,0,0,0-.424-2.737A10.555,10.555,0,0,0,22.465,5.93,10.4,10.4,0,0,0,18.1,2.877,20.231,20.231,0,0,0,15.8,2.218a11.587,11.587,0,0,0-2.387-.269,8.571,8.571,0,0,0-1.271.093l.008.05-.01-.05a19.546,19.546,0,0,0-3.534,1,8.7,8.7,0,0,0-3.059,2,10.729,10.729,0,0,0-1.747,2A9.714,9.714,0,0,0,2.619,9.436,12.248,12.248,0,0,0,2.163,11.5c-.1.7-.162,1.4-.231,2.1a12.217,12.217,0,0,0,.513,3.448,11.328,11.328,0,0,0,1.491,3.146,11.256,11.256,0,0,0,7.594,4.685,11.077,11.077,0,0,0,2.092.2m-2.439,1.686a9.72,9.72,0,0,1-1.617-.3c-.323-.083-.645-.178-.962-.287s-.629-.23-.935-.362A12.863,12.863,0,0,1,3.562,22.98a12.577,12.577,0,0,1-.88-1.008q-.307-.4-.586-.816a11.607,11.607,0,0,1-.67-1.164A15.192,15.192,0,0,1,.111,16.059a21.408,21.408,0,0,1,0-4.13c.036-.2.055-.408.084-.614s.066-.408.1-.61c.055-.305.118-.61.19-.911a11.553,11.553,0,0,1,.93-2.616l0,0a11.282,11.282,0,0,1,.629-1.183c.039-.063.079-.125.118-.188.057-.087.115-.174.174-.259s.1-.143.15-.214.122-.17.186-.253c.089-.119.181-.236.274-.349a13.012,13.012,0,0,1,7.5-4.422A12.655,12.655,0,0,1,12.873.07h.006c.128,0,.26,0,.39.005h0c.2-.01.4-.014.6-.014a13.6,13.6,0,0,1,3.571.489A16.013,16.013,0,0,1,20.8,1.888a11.824,11.824,0,0,1,4.119,3.951,13.469,13.469,0,0,1,2.026,5.369,17.951,17.951,0,0,1,.232,2.507c0,.79-.211,1.679-.26,2.465a17.34,17.34,0,0,1-1.326,3.88A13.594,13.594,0,0,1,23.562,23c-.119.121-.241.239-.367.359h0a8.038,8.038,0,0,1-.7.641q-.245.2-.5.38c-.256.183-.522.353-.794.513-.725.428-1.493.8-2.252,1.157a14.387,14.387,0,0,1-6.1.921" transform="translate(0 -0.014)" fill="#fff"/>
      <rect id="Rectangle_1" data-name="Rectangle 1" width="2.072" height="27.236" transform="translate(71.507 0.09)" fill="#fff"/>
      <rect id="Rectangle_2" data-name="Rectangle 2" width="1.036" height="27.236" transform="translate(181.58 0.09)" fill="#b29668"/>
    </g>
  </g>
</svg>
