<svg xmlns="http://www.w3.org/2000/svg" xmlns:xlink="http://www.w3.org/1999/xlink" width="1080" height="1080" viewBox="0 0 1080 1080">
  <defs>
    <clipPath id="clip-path">
      <rect id="Rectangle_269" data-name="Rectangle 269" width="1059.346" height="1059.929" fill="#aabcba"/>
    </clipPath>
    <clipPath id="clip-Watermark">
      <rect width="1080" height="1080"/>
    </clipPath>
  </defs>
  <g id="Watermark" clip-path="url(#clip-Watermark)">
    <g id="Group_15951" data-name="Group 15951" transform="translate(9.999 24.542)" style="mix-blend-mode: screen;isolation: isolate">
      <g id="Group_15825" data-name="Group 15825" transform="translate(0 -14.542)" clip-path="url(#clip-path)">
        <path id="Path_8294" data-name="Path 8294" d="M300.806,150.554,0,16.808C2.382,11.168,4.906,5.579,7.509,0L308.265,133.726q-4.131,8.293-7.459,16.828" transform="translate(40.993 306.385)" fill="#aabcba"/>
        <path id="Path_8295" data-name="Path 8295" d="M319.353,95.457,0,15.652Q1.809,7.8,3.88,0L323.163,79.8q-2.232,7.765-3.81,15.662" transform="translate(12.797 394.414)" fill="#aabcba"/>
        <path id="Path_8296" data-name="Path 8296" d="M328.269,37.163,0,13.8Q.377,6.9.925,0L329.134,23.352q-.663,6.906-.865,13.812" transform="translate(0 486.845)" fill="#aabcba"/>
        <path id="Path_8297" data-name="Path 8297" d="M298.936,6.2,3.056,150.313C2.021,148.242,1.005,146.151,0,144.07L295.81,0q1.508,3.121,3.126,6.2" transform="translate(52.413 617.415)" fill="#aabcba"/>
        <path id="Path_8298" data-name="Path 8298" d="M328.531,11.47,1.236,45.376Q.558,39.646,0,33.907L327.214,0c.322,3.84.774,7.66,1.317,11.47" transform="translate(1.699 546.867)" fill="#aabcba"/>
        <path id="Path_8299" data-name="Path 8299" d="M319.021,8.866,2.6,99.176C1.719,96.221.834,93.266,0,90.3L316.377,0q1.206,4.463,2.644,8.866" transform="translate(18.969 583.016)" fill="#aabcba"/>
        <path id="Path_8300" data-name="Path 8300" d="M145.96,307.26,0,12.143Q12.289,5.735,24.829,0L170.86,295.267a200.126,200.126,0,0,0-24.9,11.992" transform="translate(283.667 47.789)" fill="#aabcba"/>
        <path id="Path_8301" data-name="Path 8301" d="M92.7,324.2,0,8.313C9.53,5.277,19.13,2.483,28.8,0l92.773,316.126A202.783,202.783,0,0,0,92.7,324.2" transform="translate(368.006 16.496)" fill="#aabcba"/>
        <path id="Path_8302" data-name="Path 8302" d="M36.52,330.6,0,3.408Q16.013,1.221,32.137,0L68.7,327.465A203.2,203.2,0,0,0,36.52,330.6" transform="translate(457.271 1.216)" fill="#aabcba"/>
        <path id="Path_8303" data-name="Path 8303" d="M840.938,872.332a534.038,534.038,0,0,1-44.481,46.563l-107-102.675,87.757,119.663a526.138,526.138,0,0,1-53.669,39.646L643.38,866.22,703.513,987.8a527.919,527.919,0,0,1-61.822,30.841L587.177,908.43l34.64,118.044a531.175,531.175,0,0,1-68.507,20.4L522.189,940.819l12.274,109.932a532.617,532.617,0,0,1-73.382,8.575l-8.7-77.856L447.4,1059.8a531.354,531.354,0,0,1-83.093-4.715l2.533-39.767-9.439,38.762A531.125,531.125,0,0,1,0,831.067L266.3,637.389a200.7,200.7,0,0,0,43.828,49.065c86.51,69.7,213.15,56.072,282.853-30.439s56.072-213.16-30.438-282.863a200.312,200.312,0,0,0-127.645-44.5L455.823,0c11.54.412,23.08,1.236,34.59,2.4l-20.788,326.54L546.968,11.249q18.064,3.845,35.937,8.957L508.689,325.042l126.2-286.894q18.184,7.343,35.937,16.114L550.014,328.9,716.8,79.926q17.566,10.977,34.48,23.482L592.013,341.166,790.275,135.124q16.541,14.822,31.544,30.73L632.976,362.115l220.136-160.1q14.415,18.305,27.021,37.636L671.094,391.679l232.219-113.1q11.55,21.5,20.989,43.848L704.569,429.446,939.4,362.427q8.021,24.186,13.681,48.985l-221.423,63.2L960.531,450.9q3.951,26.267,5.257,52.845l-215.01,22.276,215.542,15.34a531.94,531.94,0,0,1-4.031,55.187L760.54,582.181l196.2,49.035a528.087,528.087,0,0,1-14,55.851L759.856,641.359l172.217,76.569a527.692,527.692,0,0,1-24.347,54.644l-159.762-71.03L893.05,799.03a531.977,531.977,0,0,1-34.65,51.528L724.472,760.57Z" transform="translate(93.014 0.01)" fill="#aabcba"/>
        <path id="Path_8304" data-name="Path 8304" d="M194.694,280.4,0,14.928Q10.072,7.192,20.436,0L215.2,265.563A199.4,199.4,0,0,0,194.694,280.4" transform="translate(206.756 94.09)" fill="#aabcba"/>
        <path id="Path_8305" data-name="Path 8305" d="M237.487,244.483,0,16.6Q7.826,8.092,15.923,0L253.46,227.937a200.842,200.842,0,0,0-15.973,16.546" transform="translate(139.516 153.972)" fill="#aabcba"/>
        <path id="Path_8306" data-name="Path 8306" d="M273.2,200.715,0,17.149C3.729,11.379,7.61,5.67,11.59,0L284.773,183.556a199.6,199.6,0,0,0-11.57,17.159" transform="translate(83.716 225.474)" fill="#aabcba"/>
      </g>
    </g>
  </g>
</svg>
